<svg xmlns="http://www.w3.org/2000/svg" xmlns:xlink="http://www.w3.org/1999/xlink" width="110" height="110" viewBox="0 0 110 110">
  <defs>
    <style>
      .cls-1 {
        clip-path: url(#clip-budget);
      }

      .cls-2, .cls-3 {
        fill: #6228dd;
      }

      .cls-2 {
        opacity: 0.102;
      }

      .cls-4 {
        clip-path: url(#clip-path);
      }

      .cls-5 {
        clip-path: url(#clip-path-2);
      }
    </style>
    <clipPath id="clip-path">
      <path id="Path_139" data-name="Path 139" d="M3.75.484H40.776V52H3.75Zm0,0" transform="translate(-3.75 -0.484)"/>
    </clipPath>
    <clipPath id="clip-path-2">
      <path id="Path_141" data-name="Path 141" d="M20,11H40.453V44.853H20Zm0,0" transform="translate(-20 -11)"/>
    </clipPath>
    <clipPath id="clip-budget">
      <rect width="110" height="110"/>
    </clipPath>
  </defs>
  <g id="budget" class="cls-1">
    <path id="Path_14" data-name="Path 14" class="cls-2" d="M75,0H35A35,35,0,0,0,0,35V75a35,35,0,0,0,35,35H75a35,35,0,0,0,35-35V35A35,35,0,0,0,75,0Z"/>
    <g id="surface1" transform="translate(29.563 28.757)">
      <path id="Path_131" data-name="Path 131" class="cls-3" d="M20.87,6.314a1.334,1.334,0,0,1,.887.849.789.789,0,1,0,1.526-.4,2.873,2.873,0,0,0-1.967-1.984V4.165a.8.8,0,1,0-1.609,0v.612a2.3,2.3,0,0,0-1.444,1.052,2.372,2.372,0,0,0,0,2.43,3.173,3.173,0,0,0,2.088,1.377c.76.242,1.041.364,1.163.727.16.529-.523.81-.926.81a1.427,1.427,0,0,1-1.322-.97.8.8,0,1,0-1.526.485,2.959,2.959,0,0,0,1.647,1.824c.121.039.2.077.32.121v.441a.8.8,0,1,0,1.609,0v-.4a2.332,2.332,0,0,0,.479-.16A2.257,2.257,0,0,0,23.08,9.879a2.823,2.823,0,0,0-2.248-1.785c-.562-.16-1.686-.568-1.207-1.377A1.167,1.167,0,0,1,20.87,6.314Zm0,0" transform="translate(5.729 1.179)"/>
      <path id="Path_132" data-name="Path 132" class="cls-3" d="M24.606,17.137H8.539a.81.81,0,0,0,0,1.62H24.606Zm0,0" transform="translate(1.636 6.836)"/>
      <path id="Path_133" data-name="Path 133" class="cls-3" d="M24.606,20.008H8.539a.81.81,0,0,0,0,1.62H24.606Zm0,0" transform="translate(1.636 8.015)"/>
      <path id="Path_134" data-name="Path 134" class="cls-3" d="M24.606,22.879H8.539a.81.81,0,0,0,0,1.62H24.606Zm0,0" transform="translate(1.636 9.194)"/>
      <path id="Path_135" data-name="Path 135" class="cls-3" d="M24.606,25.75H8.539a.81.81,0,0,0,0,1.62H24.606Zm0,0" transform="translate(1.636 10.372)"/>
      <path id="Path_136" data-name="Path 136" class="cls-3" d="M24.606,28.621H8.539a.81.81,0,0,0,0,1.62H24.606Zm0,0" transform="translate(1.636 11.551)"/>
      <path id="Path_137" data-name="Path 137" class="cls-3" d="M7.734,32.3a.81.81,0,0,0,.8.81H24.606v-1.62H8.539A.814.814,0,0,0,7.734,32.3Zm0,0" transform="translate(1.636 12.73)"/>
      <g id="Group_35" data-name="Group 35" class="cls-4" transform="translate(3.75 0.484)">
        <path id="Path_138" data-name="Path 138" class="cls-3" d="M38.33,50.7H6.119a.774.774,0,0,1-.76-.81V15.064h9.675A2.355,2.355,0,0,0,17.4,12.678V2.1H38.33a.838.838,0,0,1,.76.446v11.7H40.7V2.512A2.348,2.348,0,0,0,38.33.484H16.158L3.948,13.692a1.119,1.119,0,0,0-.2.606V49.891a2.418,2.418,0,0,0,2.369,2.43H38.33a2.452,2.452,0,0,0,2.369-2.43H39.09C38.969,50.338,38.771,50.7,38.33,50.7ZM15.8,3.361v9.356a.8.8,0,0,1-.766.771H6.681Zm0,0" transform="translate(-3.75 -0.484)"/>
      </g>
      <g id="Group_36" data-name="Group 36" class="cls-5" transform="translate(26.671 15.317)">
        <path id="Path_140" data-name="Path 140" class="cls-3" d="M37.9,11.395H23.041a2.243,2.243,0,0,0-2.209,2.231v27.9a2.213,2.213,0,0,0,2.209,2.226H37.9a2.238,2.238,0,0,0,2.209-2.226v-27.9A2.239,2.239,0,0,0,37.9,11.395ZM29.67,42.173H23.041a.618.618,0,0,1-.6-.606V35.693H29.67Zm0-8.1H22.441v-7.29H29.67ZM38.5,41.567a.618.618,0,0,1-.6.606H31.273v-6.48H38.5Zm0-7.493H31.273v-7.29H38.5Zm0-8.909H22.441V13.626a.623.623,0,0,1,.6-.612H37.9a.623.623,0,0,1,.6.612Zm0,0" transform="translate(-19.658 -10.838)"/>
      </g>
      <path id="Path_142" data-name="Path 142" class="cls-3" d="M34.355,14.266H24.718a1.624,1.624,0,0,0-1.609,1.62v2.43a1.62,1.62,0,0,0,1.609,1.62h9.637a1.617,1.617,0,0,0,1.609-1.62v-2.43A1.62,1.62,0,0,0,34.355,14.266Zm0,4.05H24.718v-2.43h9.637Zm0,0" transform="translate(7.948 5.658)"/>
      <path id="Path_143" data-name="Path 143" class="cls-3" d="M23.914,25.936h2.413a.81.81,0,0,0,0-1.62H23.914a.81.81,0,0,0,0,1.62Zm0,0" transform="translate(7.948 9.784)"/>
      <path id="Path_144" data-name="Path 144" class="cls-3" d="M23.914,32.316h.4v.408a.8.8,0,1,0,1.609,0v-.408h.4a.81.81,0,0,0,0-1.62h-.4v-.4a.8.8,0,1,0-1.609,0v.4h-.4a.81.81,0,0,0,0,1.62Zm0,0" transform="translate(7.948 11.905)"/>
      <path id="Path_145" data-name="Path 145" class="cls-3" d="M30.179,31.1h2.408a.81.81,0,0,0,0-1.62H30.179a.81.81,0,0,0,0,1.62Zm0,0" transform="translate(10.52 11.905)"/>
      <path id="Path_146" data-name="Path 146" class="cls-3" d="M30.179,32.827h2.408a.81.81,0,0,0,0-1.62H30.179a.81.81,0,0,0,0,1.62Zm0,0" transform="translate(10.52 12.613)"/>
      <path id="Path_147" data-name="Path 147" class="cls-3" d="M29.618,27.259a.8.8,0,0,0,1.124,0l.639-.645.645.645a.769.769,0,0,0,1.124,0,.785.785,0,0,0,0-1.13l-.645-.65.645-.65a.785.785,0,0,0,0-1.13.77.77,0,0,0-1.124,0l-.645.645-.639-.645a.8.8,0,1,0-1.124,1.13l.639.65-.639.65A.776.776,0,0,0,29.618,27.259Zm0,0" transform="translate(10.519 9.431)"/>
    </g>
  </g>
</svg>
