<svg xmlns="http://www.w3.org/2000/svg" xmlns:xlink="http://www.w3.org/1999/xlink" width="110" height="110" viewBox="0 0 110 110">
  <defs>
    <style>
      .cls-1 {
        clip-path: url(#clip-chat);
      }

      .cls-2, .cls-4 {
        fill: #6228dd;
      }

      .cls-2 {
        opacity: 0.102;
      }

      .cls-3 {
        clip-path: url(#clip-path);
      }

      .cls-5 {
        clip-path: url(#clip-path-2);
      }
    </style>
    <clipPath id="clip-path">
      <path id="Path_156" data-name="Path 156" d="M11,.719H48.235V31.1H11Zm0,0" transform="translate(-11 -0.719)"/>
    </clipPath>
    <clipPath id="clip-path-2">
      <path id="Path_160" data-name="Path 160" d="M3.129,17H40.746V48.073H3.129Zm0,0" transform="translate(-3.129 -17)"/>
    </clipPath>
    <clipPath id="clip-chat">
      <rect width="110" height="110"/>
    </clipPath>
  </defs>
  <g id="chat" class="cls-1">
    <path id="Path_14" data-name="Path 14" class="cls-2" d="M75,0H35A35,35,0,0,0,0,35V75a35,35,0,0,0,35,35H75a35,35,0,0,0,35-35V35A35,35,0,0,0,75,0Z"/>
    <g id="surface1" transform="translate(27.052 25.916)">
      <g id="Group_39" data-name="Group 39" class="cls-3" transform="translate(15.532 0.719)">
        <path id="Path_155" data-name="Path 155" class="cls-4" d="M16.38,2.612A2.852,2.852,0,0,0,13.518,5.45V20.574a2.85,2.85,0,0,0,2.862,2.832H32.612a.968.968,0,0,1,.622.228l5.1,4.334V24.354a.954.954,0,0,1,.954-.948h3.823a2.85,2.85,0,0,0,2.862-2.832V5.45a2.852,2.852,0,0,0-2.862-2.838ZM39.291,30.971a.953.953,0,0,1-.622-.234L32.255,25.3H16.38a4.753,4.753,0,0,1-4.771-4.721V5.45A4.754,4.754,0,0,1,16.38.723H43.114A4.754,4.754,0,0,1,47.884,5.45V20.574A4.753,4.753,0,0,1,43.114,25.3H40.245v4.727a.947.947,0,0,1-.554.862,1,1,0,0,1-.4.086" transform="translate(-10.649 -0.717)"/>
      </g>
      <path id="Path_157" data-name="Path 157" class="cls-4" d="M23.472,13.406a1.037,1.037,0,0,1-.683-.271.959.959,0,0,1,0-1.348,1.011,1.011,0,0,1,1.36,0,.959.959,0,0,1,0,1.348,1.034,1.034,0,0,1-.677.271" transform="translate(11.161 6.222)"/>
      <path id="Path_158" data-name="Path 158" class="cls-4" d="M24.518,14.716a.954.954,0,0,1-.96-.942V11.718A1.858,1.858,0,0,1,25,9.927a1.888,1.888,0,0,0,1.4-2.179,1.917,1.917,0,0,0-3.109-1.1A1.88,1.88,0,0,0,22.6,8.1a.954.954,0,0,1-1.908,0,3.759,3.759,0,0,1,1.367-2.893,3.829,3.829,0,0,1,6.211,2.216,3.782,3.782,0,0,1-2.795,4.34l-.006,2.013a.952.952,0,0,1-.954.942" transform="translate(10.115 2.075)"/>
      <g id="Group_40" data-name="Group 40" class="cls-5" transform="translate(3.129 26.375)">
        <path id="Path_159" data-name="Path 159" class="cls-4" d="M7.9,19.412a2.85,2.85,0,0,0-2.862,2.832V37.367A2.856,2.856,0,0,0,7.9,40.205h3.823a.952.952,0,0,1,.954.942v3.619l5.1-4.334a.968.968,0,0,1,.622-.228H34.633A2.856,2.856,0,0,0,37.5,37.367V22.243a2.85,2.85,0,0,0-2.862-2.832Zm3.823,28.352a1,1,0,0,1-.4-.086.938.938,0,0,1-.554-.856V42.095H7.9a4.754,4.754,0,0,1-4.771-4.727V22.243A4.758,4.758,0,0,1,7.9,17.516H34.633A4.758,4.758,0,0,1,39.4,22.243V37.367a4.754,4.754,0,0,1-4.771,4.727H18.758l-6.414,5.442a.947.947,0,0,1-.622.228" transform="translate(-3.129 -16.703)"/>
      </g>
      <path id="Path_161" data-name="Path 161" class="cls-4" d="M9.63,23.007H7.722a.945.945,0,1,1,0-1.89H9.63a.945.945,0,1,1,0,1.89" transform="translate(2.092 11.746)"/>
      <path id="Path_162" data-name="Path 162" class="cls-4" d="M28.533,23.007H11.353a.945.945,0,1,1,0-1.89h17.18a.945.945,0,1,1,0,1.89" transform="translate(4.186 11.746)"/>
      <path id="Path_163" data-name="Path 163" class="cls-4" d="M9.63,25.405H7.722a.945.945,0,1,1,0-1.89H9.63a.945.945,0,1,1,0,1.89" transform="translate(2.092 13.127)"/>
      <path id="Path_164" data-name="Path 164" class="cls-4" d="M28.533,25.405H11.353a.945.945,0,1,1,0-1.89h17.18a.945.945,0,1,1,0,1.89" transform="translate(4.186 13.127)"/>
      <path id="Path_165" data-name="Path 165" class="cls-4" d="M9.63,27.8H7.722a.945.945,0,1,1,0-1.89H9.63a.945.945,0,1,1,0,1.89" transform="translate(2.092 14.508)"/>
      <path id="Path_166" data-name="Path 166" class="cls-4" d="M28.533,27.8H11.353a.945.945,0,1,1,0-1.89h17.18a.945.945,0,1,1,0,1.89" transform="translate(4.186 14.508)"/>
      <path id="Path_167" data-name="Path 167" class="cls-4" d="M9.63,30.208H7.722a.948.948,0,1,1,0-1.9H9.63a.948.948,0,1,1,0,1.9" transform="translate(2.092 15.889)"/>
      <path id="Path_168" data-name="Path 168" class="cls-4" d="M28.533,30.208H11.353a.948.948,0,1,1,0-1.9h17.18a.948.948,0,1,1,0,1.9" transform="translate(4.186 15.889)"/>
    </g>
  </g>
</svg>
