<svg xmlns="http://www.w3.org/2000/svg" xmlns:xlink="http://www.w3.org/1999/xlink" width="110" height="110" viewBox="0 0 110 110">
  <defs>
    <style>
      .cls-1 {
        clip-path: url(#clip-checkout);
      }

      .cls-2, .cls-4 {
        fill: #6228dd;
      }

      .cls-2 {
        opacity: 0.102;
      }

      .cls-3 {
        clip-path: url(#clip-path);
      }

      .cls-5 {
        clip-path: url(#clip-path-2);
      }

      .cls-6 {
        clip-path: url(#clip-path-3);
      }

      .cls-7 {
        clip-path: url(#clip-path-4);
      }
    </style>
    <clipPath id="clip-path">
      <path id="Path_120" data-name="Path 120" d="M7,5.684H57.269v39.06H7Zm0,0" transform="translate(-7 -5.684)"/>
    </clipPath>
    <clipPath id="clip-path-2">
      <path id="Path_122" data-name="Path 122" d="M20,28h6.7v6.59H20Zm0,0" transform="translate(-20 -28)"/>
    </clipPath>
    <clipPath id="clip-path-3">
      <path id="Path_124" data-name="Path 124" d="M29,28h6.7v6.59H29Zm0,0" transform="translate(-29 -28)"/>
    </clipPath>
    <clipPath id="clip-path-4">
      <path id="Path_128" data-name="Path 128" d="M.477,17h24.33v5.026H.477Zm0,0" transform="translate(-0.477 -17)"/>
    </clipPath>
    <clipPath id="clip-checkout">
      <rect width="110" height="110"/>
    </clipPath>
  </defs>
  <g id="checkout" class="cls-1">
    <path id="Path_14" data-name="Path 14" class="cls-2" d="M75,0H35A35,35,0,0,0,0,35V75a35,35,0,0,0,35,35H75a35,35,0,0,0,35-35V35A35,35,0,0,0,75,0Z"/>
    <g id="surface1" transform="translate(20.523 27.329)">
      <g id="Group_31" data-name="Group 31" class="cls-3" transform="translate(11.405 5.684)">
        <path id="Path_119" data-name="Path 119" class="cls-4" d="M54.416,16.736,51.006,34.5H28.587l-3.4-17.76ZM27.927,37.009h24.12A.752.752,0,0,0,52.171,37h.039c.026-.007.052-.007.079-.013s.033-.007.046-.013.046-.007.065-.013l.052-.02.059-.02a.451.451,0,0,1,.052-.02.132.132,0,0,1,.052-.026.164.164,0,0,1,.046-.026.265.265,0,0,1,.059-.033.137.137,0,0,1,.039-.026l.079-.059.013-.013a.828.828,0,0,0,.085-.072l.02-.026.059-.059a.065.065,0,0,1,.026-.033l.039-.059a.137.137,0,0,0,.026-.039l.039-.059c.007-.013.013-.033.02-.046a.2.2,0,0,0,.026-.052.386.386,0,0,0,.026-.052l.02-.059c.007-.02.013-.033.02-.052s.007-.039.013-.059a.191.191,0,0,0,.013-.059v-.007l3.887-20.273a1.255,1.255,0,0,0-1.237-1.5H24.687l-.746-3.867a5.755,5.755,0,0,0-5.647-4.666H8.845a1.26,1.26,0,1,0,0,2.519h9.449a3.227,3.227,0,0,1,3.174,2.618L26.1,34.888a4.464,4.464,0,0,0,1.826,8.54h24.12a1.26,1.26,0,1,0,0-2.519H27.927a1.95,1.95,0,1,1,0-3.9" transform="translate(-6.607 -5.684)"/>
      </g>
      <g id="Group_32" data-name="Group 32" class="cls-5" transform="translate(33.182 43.068)">
        <path id="Path_121" data-name="Path 121" class="cls-4" d="M22.987,28.852a2.578,2.578,0,1,0,2.585,2.578,2.585,2.585,0,0,0-2.585-2.578" transform="translate(-19.728 -27.425)"/>
      </g>
      <g id="Group_33" data-name="Group 33" class="cls-6" transform="translate(48.259 43.068)">
        <path id="Path_123" data-name="Path 123" class="cls-4" d="M32.237,28.852a2.578,2.578,0,1,0,2.578,2.578,2.585,2.585,0,0,0-2.578-2.578" transform="translate(-28.56 -27.425)"/>
      </g>
      <path id="Path_125" data-name="Path 125" class="cls-4" d="M3.991,13.192h16a1.256,1.256,0,0,0,0-2.513h-16a1.256,1.256,0,1,0,0,2.513" transform="translate(1.524 3.373)"/>
      <path id="Path_126" data-name="Path 126" class="cls-4" d="M2.862,16.8H21.381a1.256,1.256,0,1,0,0-2.513H2.862a1.256,1.256,0,1,0,0,2.513" transform="translate(0.762 5.808)"/>
      <g id="Group_34" data-name="Group 34" class="cls-7" transform="translate(0.477 24.641)">
        <path id="Path_127" data-name="Path 127" class="cls-4" d="M24.034,19.15a1.264,1.264,0,0,0-1.263-1.263H1.74a1.26,1.26,0,1,0,0,2.519H22.771a1.258,1.258,0,0,0,1.263-1.256" transform="translate(-0.477 -16.401)"/>
      </g>
      <path id="Path_129" data-name="Path 129" class="cls-4" d="M22.122,22.755a1.258,1.258,0,0,0-1.256-1.263H5.495a1.26,1.26,0,0,0,0,2.519H20.866a1.257,1.257,0,0,0,1.256-1.256" transform="translate(2.54 10.674)"/>
      <path id="Path_130" data-name="Path 130" class="cls-4" d="M19.21,25.1H8.877a1.26,1.26,0,0,0,0,2.519H19.21a1.26,1.26,0,0,0,0-2.519" transform="translate(4.824 13.108)"/>
    </g>
  </g>
</svg>
