<svg xmlns="http://www.w3.org/2000/svg" xmlns:xlink="http://www.w3.org/1999/xlink" width="110" height="110" viewBox="0 0 110 110">
  <defs>
    <style>
      .cls-1 {
        clip-path: url(#clip-custom);
      }

      .cls-2, .cls-4 {
        fill: #6228dd;
      }

      .cls-2 {
        opacity: 0.102;
      }

      .cls-3 {
        clip-path: url(#clip-path);
      }

      .cls-5 {
        clip-path: url(#clip-path-2);
      }

      .cls-6 {
        clip-path: url(#clip-path-3);
      }
    </style>
    <clipPath id="clip-path">
      <path id="Path_107" data-name="Path 107" d="M.605.926H49.918v47.3H.605Zm0,0" transform="translate(-0.605 -0.926)"/>
    </clipPath>
    <clipPath id="clip-path-2">
      <path id="Path_109" data-name="Path 109" d="M25,24H42.666V36.178H25Zm0,0" transform="translate(-25 -24)"/>
    </clipPath>
    <clipPath id="clip-path-3">
      <path id="Path_117" data-name="Path 117" d="M16,16H47.367V47.854H16Zm0,0" transform="translate(-16 -16)"/>
    </clipPath>
    <clipPath id="clip-custom">
      <rect width="110" height="110"/>
    </clipPath>
  </defs>
  <g id="custom" class="cls-1">
    <path id="Path_14" data-name="Path 14" class="cls-2" d="M75,0H35A35,35,0,0,0,0,35V75a35,35,0,0,0,35,35H75a35,35,0,0,0,35-35V35A35,35,0,0,0,75,0Z"/>
    <g id="surface1" transform="translate(26.994 26.674)">
      <g id="Group_28" data-name="Group 28" class="cls-3" transform="translate(0.605 0.926)">
        <path id="Path_106" data-name="Path 106" class="cls-4" d="M2.472,13.907H7.027v4.168a2.3,2.3,0,0,1-2.277,2.319,2.3,2.3,0,0,1-2.277-2.319ZM4.3,22.2v.048h7.284V20.394H8.157a4.163,4.163,0,0,0,.7-2.319V5.094a2.278,2.278,0,1,1,4.555,0V44.042a4.136,4.136,0,0,0,4.1,4.168h9.568V46.362h-6.16a4.169,4.169,0,0,0,.7-2.319V39.868H35.272V38.013H20.7a.923.923,0,0,0-.916.928v5.1a2.332,2.332,0,0,1-.672,1.641,2.235,2.235,0,0,1-1.606.678,2.3,2.3,0,0,1-2.277-2.319V5.094a4.236,4.236,0,0,0-.69-2.319H45.291c1.148,0,1.826,1.041,1.826,2.783v20.4h1.82V5.558c0-3.2-1.826-4.632-3.645-4.632H11.582V.967A3.753,3.753,0,0,0,11.13.926a4.141,4.141,0,0,0-4.1,4.168v6.957H1.562a.921.921,0,0,0-.91.928v5.1A4.137,4.137,0,0,0,4.3,22.2" transform="translate(-0.581 -0.926)"/>
      </g>
      <g id="Group_29" data-name="Group 29" class="cls-5" transform="translate(37.74 36.051)">
        <path id="Path_108" data-name="Path 108" class="cls-4" d="M41.279,25.607H35.809V24.68h-1.82v.928h-.91v1.855h7.284V32.1a1.843,1.843,0,0,1-1.82,1.855H25.789v1.849H38.544a3.678,3.678,0,0,0,3.645-3.7V26.535a.921.921,0,0,0-.91-.928" transform="translate(-24.588 -23.645)"/>
      </g>
      <path id="Path_110" data-name="Path 110" class="cls-4" d="M35.63,5.188H17.41V7.043H35.63V5.188" transform="translate(8.776 2.226)"/>
      <path id="Path_111" data-name="Path 111" class="cls-4" d="M16.665,3.605l-2.1,2.848L13.484,5.36,12.2,6.668l1.82,1.855a.9.9,0,0,0,.648.274l.059-.006a.887.887,0,0,0,.666-.369l2.735-3.71L16.665,3.605" transform="translate(6.055 1.399)"/>
      <path id="Path_112" data-name="Path 112" class="cls-4" d="M17.41,12.521H35.63V10.672H17.41v1.849" transform="translate(8.776 5.09)"/>
      <path id="Path_113" data-name="Path 113" class="cls-4" d="M16.665,9.09l-2.1,2.848-1.082-1.1L12.2,12.152l1.82,1.855a.913.913,0,0,0,.648.268h.059a.906.906,0,0,0,.666-.369l2.735-3.71L16.665,9.09" transform="translate(6.055 4.264)"/>
      <path id="Path_114" data-name="Path 114" class="cls-4" d="M17.41,18.008H35.63V16.152H17.41v1.855" transform="translate(8.776 7.952)"/>
      <path id="Path_115" data-name="Path 115" class="cls-4" d="M16.665,14.57l-2.1,2.848-1.082-1.094L12.2,17.633l1.82,1.855a.919.919,0,0,0,.648.274l.059-.006a.887.887,0,0,0,.666-.369l2.735-3.71L16.665,14.57" transform="translate(6.055 7.126)"/>
      <g id="Group_30" data-name="Group 30" class="cls-6" transform="translate(24.04 23.873)">
        <path id="Path_116" data-name="Path 116" class="cls-4" d="M42.891,19l1.29,1.314-1.29,1.308-1.284-1.308ZM21.633,43.258l-1.29-1.308,1.29-1.314.642.66,1.29-1.314-.642-.654L40.316,21.619l1.29,1.314Zm-2.771,1.51.505-1.2.333.345.339.345Zm-.827-18.737H33.407L18.41,41.3l-.018.03a.922.922,0,0,0-.172.256l-.006.012-1.927,4.579a.94.94,0,0,0,.19,1.023.915.915,0,0,0,.648.274.964.964,0,0,0,.357-.077l4.489-1.962h.006l.012-.006a.86.86,0,0,0,.256-.178l.03-.018L46.114,20.965a.933.933,0,0,0,0-1.308l-2.575-2.622a.9.9,0,0,0-1.29,0l-7.023,7.142H18.036v1.855" transform="translate(-15.889 -15.602)"/>
      </g>
      <path id="Path_118" data-name="Path 118" class="cls-4" d="M13.484,21.8,12.2,23.119l1.82,1.855a.913.913,0,0,0,.648.268h.059a.906.906,0,0,0,.666-.369l2.735-3.71-1.463-1.112-2.1,2.854-1.082-1.1" transform="translate(6.055 9.988)"/>
    </g>
  </g>
</svg>
