<svg xmlns="http://www.w3.org/2000/svg" xmlns:xlink="http://www.w3.org/1999/xlink" width="110" height="110" viewBox="0 0 110 110">
  <defs>
    <style>
      .cls-1 {
        clip-path: url(#clip-secure);
      }

      .cls-2, .cls-4 {
        fill: #6228dd;
      }

      .cls-2 {
        opacity: 0.102;
      }

      .cls-3 {
        clip-path: url(#clip-path);
      }
    </style>
    <clipPath id="clip-path">
      <path id="Path_149" data-name="Path 149" d="M3.75.379H49.829V55.268H3.75Zm0,0" transform="translate(-3.75 -0.379)"/>
    </clipPath>
    <clipPath id="clip-secure">
      <rect width="110" height="110"/>
    </clipPath>
  </defs>
  <g id="secure" class="cls-1">
    <path id="Path_14" data-name="Path 14" class="cls-2" d="M75,0H35A35,35,0,0,0,0,35V75a35,35,0,0,0,35,35H75a35,35,0,0,0,35-35V35A35,35,0,0,0,75,0Z"/>
    <g id="surface1" transform="translate(28.21 27.177)">
      <g id="Group_37" data-name="Group 37" class="cls-3" transform="translate(3.75 0.379)">
        <path id="Path_148" data-name="Path 148" class="cls-4" d="M5.6,9.3V23.1A31.951,31.951,0,0,0,23.42,51.831L26.786,53.5l3.366-1.674A31.951,31.951,0,0,0,47.97,23.1V9.3L26.786,2.263ZM26.786,55.448a.956.956,0,0,1-.416-.094L22.6,53.47A33.754,33.754,0,0,1,3.758,23.1V8.637a.91.91,0,0,1,.632-.866L26.493.425a1,1,0,0,1,.585,0l22.1,7.346a.918.918,0,0,1,.632.866V23.1A33.754,33.754,0,0,1,30.971,53.47L27.2,55.355a.956.956,0,0,1-.416.094" transform="translate(-3.746 -0.378)"/>
      </g>
      <path id="Path_150" data-name="Path 150" class="cls-4" d="M9.289,11.343v9.822A26.465,26.465,0,0,0,24.058,44.972l.89.445.89-.445A26.465,26.465,0,0,0,40.606,21.165V11.343l-15.658-5.2ZM24.947,47.36a.956.956,0,0,1-.416-.094l-1.3-.656A28.283,28.283,0,0,1,7.445,21.165V10.676a.918.918,0,0,1,.632-.866L24.655,4.3a.911.911,0,0,1,.585,0L41.817,9.809a.918.918,0,0,1,.632.866v10.49A28.283,28.283,0,0,1,26.663,46.611l-1.3.656a.956.956,0,0,1-.416.094" transform="translate(1.842 1.931)"/>
      <path id="Path_151" data-name="Path 151" class="cls-4" d="M14.291,21.531,20.8,28.023,33.063,15.8l-1.3-1.294L21.456,24.78a.929.929,0,0,1-1.305,0l-4.56-4.548Zm6.509,8.7a.917.917,0,0,1-.65-.269l-7.814-7.785a.922.922,0,0,1-.269-.65.943.943,0,0,1,.269-.65l2.6-2.593a.929.929,0,0,1,1.305,0L20.8,22.831,31.108,12.558a.929.929,0,0,1,1.305,0l2.6,2.6a.915.915,0,0,1,0,1.294L21.456,29.966a.921.921,0,0,1-.656.269" transform="translate(4.146 5.938)"/>
    </g>
  </g>
</svg>
