<svg xmlns="http://www.w3.org/2000/svg" xmlns:xlink="http://www.w3.org/1999/xlink" width="110" height="110" viewBox="0 0 110 110">
  <defs>
    <style>
      .cls-1 {
        clip-path: url(#clip-money);
      }

      .cls-2, .cls-4 {
        fill: #6228dd;
      }

      .cls-2 {
        opacity: 0.102;
      }

      .cls-3 {
        clip-path: url(#clip-path);
      }
    </style>
    <clipPath id="clip-path">
      <path id="Path_97" data-name="Path 97" d="M.938.938H54.993V54.993H.938Zm0,0" transform="translate(-0.938 -0.938)"/>
    </clipPath>
    <clipPath id="clip-money">
      <rect width="110" height="110"/>
    </clipPath>
  </defs>
  <g id="money" class="cls-1">
    <path id="Path_14" data-name="Path 14" class="cls-2" d="M75,0H35A35,35,0,0,0,0,35V75a35,35,0,0,0,35,35H75a35,35,0,0,0,35-35V35A35,35,0,0,0,75,0Z"/>
    <g id="surface1" transform="translate(27.035 27.035)">
      <g id="Group_25" data-name="Group 25" class="cls-3" transform="translate(0.938 0.938)">
        <path id="Path_96" data-name="Path 96" class="cls-4" d="M32.775,44.981a.9.9,0,0,1-.845.012l-2.745-1.707h6.587Zm20.036-6.857-19.227,14.5a2.729,2.729,0,0,1-2.463.446l-18.3-4.95a3.531,3.531,0,0,0-1.05-.158h-.023V38.341l4.276-1.848a7.212,7.212,0,0,1,3.566-.328L39.7,39.415a1.051,1.051,0,0,1,.88,1.032,1.04,1.04,0,0,1-.076.393,1.03,1.03,0,0,1-.217.334,1.071,1.071,0,0,1-.751.311H26.024a.006.006,0,0,1-.006.006l-3.455-.012h-.006a.9.9,0,0,0,0,1.8l3.214.012,5.244,3.249a2.708,2.708,0,0,0,1.331.352,2.654,2.654,0,0,0,1.308-.34h.006l5.777-3.267h.094a2.865,2.865,0,0,0,2.018-.827A2.921,2.921,0,0,0,42,41.843l9.637-5.449a1.05,1.05,0,0,1,1.173,1.73ZM9.947,49.585a.9.9,0,0,1-.9.9h-5.4a.9.9,0,0,1-.9-.9V36.975a.9.9,0,0,1,.9-.9h5.4a.9.9,0,0,1,.9.9v.716c0,.023-.012.041-.012.065l.012,11.267ZM27.1,28.945c-.023-.305-.035-.6-.035-.915,0-.223.012-.458.018-.669.012-.235.029-.463.047-.68a22.589,22.589,0,0,1,5.4-12.188c.282-.323.575-.633.9-.944H45.919a22.064,22.064,0,0,1,6.37,14.482,12.386,12.386,0,0,1-2.323,7.238l-7.707,4.358a2.832,2.832,0,0,0-2.276-1.988L29.977,36.019A12.317,12.317,0,0,1,27.1,28.945Zm5.373-19H46.887a.9.9,0,0,1,0,1.8H32.47a.9.9,0,1,1,0-1.8Zm.962-6.211a21.833,21.833,0,0,1,6.247-1,21.639,21.639,0,0,1,6.247,1l-1.4,4.411h-9.69Zm21.2,32.189a2.816,2.816,0,0,0-2.094-1.419A14.2,14.2,0,0,0,54.09,28.03a23.805,23.805,0,0,0-5.971-14.793,2.693,2.693,0,0,0-1.232-5.091h-.475L47.72,4.04a1.585,1.585,0,0,0-1.009-1.947A23.434,23.434,0,0,0,39.679.938,23.537,23.537,0,0,0,32.622,2.1a1.589,1.589,0,0,0-.985,1.959l1.3,4.088H32.47a2.693,2.693,0,0,0-1.238,5.091.529.529,0,0,1-.053.059,24.439,24.439,0,0,0-5.848,13.232c-.023.252-.041.51-.053.763s-.018.493-.018.739c0,.358.012.7.041,1.056a14.03,14.03,0,0,0,2.141,6.522l-7.566-1.22a9.05,9.05,0,0,0-4.511.428l-3.683,1.59a2.7,2.7,0,0,0-2.639-2.135h-5.4a2.7,2.7,0,0,0-2.7,2.7V49.585a2.7,2.7,0,0,0,2.7,2.7h5.4a2.7,2.7,0,0,0,2.686-2.522,1.842,1.842,0,0,1,.587.082l18.312,4.956a4.643,4.643,0,0,0,1.3.182,4.483,4.483,0,0,0,2.757-.933L53.914,39.55a2.889,2.889,0,0,0,1.079-2.241,2.936,2.936,0,0,0-.352-1.378c-.006,0-.006,0-.006-.006" transform="translate(-0.938 -0.938)"/>
      </g>
      <path id="Path_98" data-name="Path 98" class="cls-4" d="M6.04,25.539h-1.8a.9.9,0,1,0,0,1.8h1.8a.9.9,0,1,0,0-1.8" transform="translate(1.203 12.339)"/>
      <path id="Path_99" data-name="Path 99" class="cls-4" d="M6.04,31.539h-1.8a.9.9,0,1,0,0,1.8h1.8a.9.9,0,1,0,0-1.8" transform="translate(1.203 15.348)"/>
      <path id="Path_100" data-name="Path 100" class="cls-4" d="M25.539,16.545A2.707,2.707,0,0,1,27.34,14v5.074A2.693,2.693,0,0,1,25.539,16.545Zm5.408,7.209a2.7,2.7,0,0,1-1.807,2.534V21.213A2.7,2.7,0,0,1,30.947,23.753Zm-1.807,4.5v-.094a4.5,4.5,0,0,0,0-8.827V14a2.7,2.7,0,0,1,1.807,2.54.9.9,0,0,0,1.8,0,4.516,4.516,0,0,0-3.607-4.417V12.04a.9.9,0,1,0-1.8,0v.088a4.505,4.505,0,0,0,0,8.827v5.332a2.7,2.7,0,0,1-1.8-2.534.9.9,0,1,0-1.8,0,4.51,4.51,0,0,0,3.6,4.411v.094a.9.9,0,0,0,1.8,0" transform="translate(11.436 5.115)"/>
    </g>
  </g>
</svg>
