<svg xmlns="http://www.w3.org/2000/svg" xmlns:xlink="http://www.w3.org/1999/xlink" width="110" height="110" viewBox="0 0 110 110">
  <defs>
    <style>
      .cls-1 {
        clip-path: url(#clip-icon_2);
      }

      .cls-2, .cls-4 {
        fill: #6228dd;
      }

      .cls-2 {
        opacity: 0.102;
      }

      .cls-3 {
        clip-path: url(#clip-path);
      }
    </style>
    <clipPath id="clip-path">
      <path id="Path_22" data-name="Path 22" d="M0,.3H57.158V57.426H0Zm0,0" transform="translate(0 -0.305)"/>
    </clipPath>
    <clipPath id="clip-icon_2">
      <rect width="110" height="110"/>
    </clipPath>
  </defs>
  <g id="icon_2" data-name="icon 2" class="cls-1">
    <path id="Path_14" data-name="Path 14" class="cls-2" d="M75,0H35A35,35,0,0,0,0,35V75a35,35,0,0,0,35,35H75a35,35,0,0,0,35-35V35A35,35,0,0,0,75,0Z"/>
    <g id="surface1" transform="translate(26.421 26.135)">
      <g id="Group_9" data-name="Group 9" class="cls-3" transform="translate(0 0.305)">
        <path id="Path_21" data-name="Path 21" class="cls-4" d="M40.087,37.2H53.336L51.858,45.38ZM55.031,52.068a1.888,1.888,0,0,1-2.552.468L33.161,39.113A6.463,6.463,0,0,0,35,35.9L54.566,49.5A1.855,1.855,0,0,1,55.031,52.068Zm-5.792,3.556H39.025l.682-3.684h8.688l2.015,1.4-.271,1.526A.914.914,0,0,1,49.239,55.624ZM7.358,54.87,7.08,53.344,9.1,51.94h8.694l.682,3.684H8.256A.914.914,0,0,1,7.358,54.87Zm-4.893-2.8A1.855,1.855,0,0,1,2.929,49.5L22.5,35.9a6.418,6.418,0,0,0,1.834,3.21L5.017,52.536A1.887,1.887,0,0,1,2.465,52.068ZM4.16,37.2H17.409L5.638,45.38ZM2.139,32.6a.92.92,0,0,1,.917-.924h19.9a6.383,6.383,0,0,0-.591,2.085l-2.3,1.6h-17a.919.919,0,0,1-.917-.918ZM15.9,29.836H10.4V27.994h5.5Zm-9.17-4.6a.92.92,0,0,1,.917-.924h11.01a.924.924,0,0,1,.917.924v4.6h-1.84V26.151H8.564v3.684H6.73ZM10.4,17.865a.92.92,0,0,1,.917-.924h3.668a.92.92,0,0,1,.917.924v4.6H10.4Zm11.01-1.842a2.759,2.759,0,0,1,2.751-2.766H35.17a2.759,2.759,0,0,1,2.751,2.766v2.76H36.087V16.941A1.843,1.843,0,0,0,34.253,15.1H25.077a1.843,1.843,0,0,0-1.834,1.842V29.836H21.409Zm5.5-6.45h5.508v1.842H26.911Zm1.834-5.526h1.84V7.731h-1.84Zm22.021,17.5v.918H34.253v-.918a.92.92,0,0,1,.917-.924H49.849A.92.92,0,0,1,50.766,21.549Zm-1.834,8.286V26.151H36.087v3.684H34.253V24.309H50.766v5.526Zm-1.834,0H37.921V27.994H47.1ZM34.253,18.954a2.76,2.76,0,0,0-1.834,2.6v7.611a6.357,6.357,0,0,0-7.342,0V16.941h9.176ZM28.745,39.046a4.605,4.605,0,1,1,4.591-4.6A4.6,4.6,0,0,1,28.745,39.046ZM19.7,44.572l6.244-4.341a6.309,6.309,0,0,0,5.6,0l6.244,4.341Zm21,2.012,5.05,3.514h-5.7Zm-23.9,0,.646,3.514h-5.7ZM37.843,51.94l-.682,3.684H20.335l-.682-3.684ZM19.315,50.1l-.676-3.684H38.862L38.181,50.1ZM55.357,32.6v1.842a.923.923,0,0,1-.917.918h-17l-2.3-1.6a6.534,6.534,0,0,0-.591-2.085h19.9A.924.924,0,0,1,55.357,32.6Zm1.834,1.842V32.6a2.763,2.763,0,0,0-2.751-2.766H52.6V21.549a2.759,2.759,0,0,0-2.751-2.766H39.755v-2.76a4.6,4.6,0,0,0-4.585-4.608h-.917V7.731H32.419V4.047h.157a5.316,5.316,0,0,1,3.783,1.575A.91.91,0,0,0,37,5.889a.918.918,0,0,0,.652-1.568A7.129,7.129,0,0,0,32.576,2.2h-5.6a5.309,5.309,0,0,1-2.962-.9L22.832.521a.92.92,0,0,0-1.02,1.532l1.176.784a7.206,7.206,0,0,0,3.922,1.21V7.731H25.077v3.684H24.16a4.6,4.6,0,0,0-4.585,4.608v6.614a2.727,2.727,0,0,0-.917-.17h-.923v-4.6A2.759,2.759,0,0,0,14.983,15.1H11.315a2.759,2.759,0,0,0-2.751,2.766v4.6H7.647A2.764,2.764,0,0,0,4.89,25.233v4.6H3.056A2.759,2.759,0,0,0,.3,32.6v1.842a2.758,2.758,0,0,0,1.967,2.632l1.707,9.459-2.1,1.453a3.69,3.69,0,0,0,2.093,6.718,3.622,3.622,0,0,0,1.436-.3l.145.8a2.75,2.75,0,0,0,2.7,2.268H49.239a2.75,2.75,0,0,0,2.7-2.268l.145-.8a3.615,3.615,0,0,0,1.43.3,3.688,3.688,0,0,0,2.093-6.718l-2.1-1.453,1.713-9.459a2.758,2.758,0,0,0,1.967-2.632" transform="translate(0.166 -0.272)"/>
      </g>
      <path id="Path_23" data-name="Path 23" class="cls-4" d="M19.689,24.168a.921.921,0,1,1,.917-.918A.923.923,0,0,1,19.689,24.168Zm0-3.684a2.763,2.763,0,1,0,2.757,2.766,2.763,2.763,0,0,0-2.757-2.766" transform="translate(9.222 11.226)"/>
    </g>
  </g>
</svg>
