<svg xmlns="http://www.w3.org/2000/svg" xmlns:xlink="http://www.w3.org/1999/xlink" width="110" height="110" viewBox="0 0 110 110">
  <defs>
    <style>
      .cls-1 {
        clip-path: url(#clip-tracking);
      }

      .cls-2, .cls-4 {
        fill: #6228dd;
      }

      .cls-2 {
        opacity: 0.102;
      }

      .cls-3 {
        clip-path: url(#clip-path);
      }
    </style>
    <clipPath id="clip-path">
      <path id="Path_102" data-name="Path 102" d="M.664,8.578H69.457v38.7H.664Zm0,0" transform="translate(-0.664 -8.578)"/>
    </clipPath>
    <clipPath id="clip-tracking">
      <rect width="110" height="110"/>
    </clipPath>
  </defs>
  <g id="tracking" class="cls-1">
    <path id="Path_14" data-name="Path 14" class="cls-2" d="M75,0H35A35,35,0,0,0,0,35V75a35,35,0,0,0,35,35H75a35,35,0,0,0,35-35V35A35,35,0,0,0,75,0Z"/>
    <g id="surface1" transform="translate(19.939 27.074)">
      <g id="Group_26" data-name="Group 26" class="cls-3" transform="translate(0.664 8.578)">
        <path id="Path_101" data-name="Path 101" class="cls-4" d="M69.158,28.971,62.709,18.222a2.152,2.152,0,0,0-1.851-1.045h-12.9V10.728a2.15,2.15,0,0,0-2.15-2.15h-30.1a2.15,2.15,0,0,0-2.15,2.15v2.15H2.814a2.15,2.15,0,0,0,0,4.3H13.563v4.3H7.113a2.15,2.15,0,1,0,0,4.3h6.449v4.3h-2.15a2.15,2.15,0,0,0,0,4.3h2.15v6.449a2.15,2.15,0,0,0,2.15,2.15h6.845a6.412,6.412,0,0,0,12.107,0H52.654a6.412,6.412,0,0,0,12.107,0h2.545a2.15,2.15,0,0,0,2.15-2.15V30.076A2.1,2.1,0,0,0,69.158,28.971Zm-40.547,14a2.15,2.15,0,1,1,2.15-2.15A2.155,2.155,0,0,1,28.611,42.975Zm30.1,0a2.15,2.15,0,1,1,2.15-2.15A2.16,2.16,0,0,1,58.708,42.975Zm-6.449-12.9v-8.6h7.382l5.165,8.6Zm0,0" transform="translate(-0.664 -8.578)"/>
      </g>
    </g>
  </g>
</svg>
